<mxfile host="65bd71144e">
    <diagram id="Pl9PEIfsRqZkIzOmzycs" name="Page-1">
        <mxGraphModel dx="1384" dy="389" grid="1" gridSize="10" guides="1" tooltips="1" connect="1" arrows="1" fold="1" page="1" pageScale="1" pageWidth="827" pageHeight="1169" math="0" shadow="0">
            <root>
                <mxCell id="0"/>
                <mxCell id="1" parent="0"/>
                <mxCell id="123" value="" style="rounded=0;whiteSpace=wrap;html=1;fillColor=#1ba1e2;strokeColor=#006EAF;fontColor=#ffffff;align=left;" vertex="1" parent="1">
                    <mxGeometry x="-820" y="1180" width="1080" height="769" as="geometry"/>
                </mxCell>
                <mxCell id="2" value="&lt;p style=&quot;margin:0px;margin-top:4px;text-align:center;&quot;&gt;&lt;b&gt;UserDO&lt;/b&gt;&lt;/p&gt;&lt;hr size=&quot;1&quot;&gt;&lt;p style=&quot;margin:0px;margin-left:4px;&quot;&gt;+ id: int&lt;/p&gt;&lt;p style=&quot;margin:0px;margin-left:4px;&quot;&gt;+ firstName: String&lt;/p&gt;&lt;p style=&quot;margin:0px;margin-left:4px;&quot;&gt;+ mail: String&lt;/p&gt;&lt;p style=&quot;margin:0px;margin-left:4px;&quot;&gt;&lt;br&gt;&lt;/p&gt;&lt;hr size=&quot;1&quot;&gt;&lt;p style=&quot;margin:0px;margin-left:4px;&quot;&gt;+ CRUD(): Type&lt;/p&gt;&lt;p style=&quot;margin:0px;margin-left:4px;&quot;&gt;&lt;br&gt;&lt;/p&gt;&lt;p style=&quot;margin:0px;margin-left:4px;&quot;&gt;&lt;br&gt;&lt;/p&gt;" style="verticalAlign=top;align=left;overflow=fill;fontSize=12;fontFamily=Helvetica;html=1;" parent="1" vertex="1">
                    <mxGeometry x="-480" width="120" height="130" as="geometry"/>
                </mxCell>
                <mxCell id="3" value="&lt;p style=&quot;margin:0px;margin-top:4px;text-align:center;&quot;&gt;&lt;b&gt;UserController&lt;/b&gt;&lt;/p&gt;&lt;hr size=&quot;1&quot;&gt;&lt;p style=&quot;margin:0px;margin-left:4px;&quot;&gt;+ userService: UserService&lt;/p&gt;&lt;p style=&quot;margin:0px;margin-left:4px;&quot;&gt;&lt;br&gt;&lt;/p&gt;&lt;hr size=&quot;1&quot;&gt;&lt;p style=&quot;margin:0px;margin-left:4px;&quot;&gt;+ addUser(user: UserDO)&lt;/p&gt;&lt;p style=&quot;margin:0px;margin-left:4px;&quot;&gt;+getUser(id: int): UserDO&lt;/p&gt;&lt;p style=&quot;margin:0px;margin-left:4px;&quot;&gt;&lt;br&gt;&lt;/p&gt;" style="verticalAlign=top;align=left;overflow=fill;fontSize=12;fontFamily=Helvetica;html=1;fillColor=#60a917;fontColor=#ffffff;strokeColor=#2D7600;" parent="1" vertex="1">
                    <mxGeometry x="-240" width="160" height="130" as="geometry"/>
                </mxCell>
                <mxCell id="4" value="" style="endArrow=open;html=1;rounded=0;align=center;verticalAlign=bottom;dashed=1;endFill=0;labelBackgroundColor=none;entryX=0.998;entryY=0.394;entryDx=0;entryDy=0;entryPerimeter=0;exitX=-0.005;exitY=0.387;exitDx=0;exitDy=0;exitPerimeter=0;" parent="1" source="3" target="2" edge="1">
                    <mxGeometry relative="1" as="geometry">
                        <mxPoint x="150" y="60" as="sourcePoint"/>
                        <mxPoint x="310" y="60" as="targetPoint"/>
                    </mxGeometry>
                </mxCell>
                <mxCell id="5" value="" style="resizable=0;html=1;align=center;verticalAlign=top;labelBackgroundColor=none;" parent="4" connectable="0" vertex="1">
                    <mxGeometry relative="1" as="geometry"/>
                </mxCell>
                <mxCell id="8" value="UserService" style="swimlane;fontStyle=1;align=center;verticalAlign=top;childLayout=stackLayout;horizontal=1;startSize=26;horizontalStack=0;resizeParent=1;resizeParentMax=0;resizeLast=0;collapsible=1;marginBottom=0;" parent="1" vertex="1">
                    <mxGeometry x="70" y="18" width="180" height="112" as="geometry"/>
                </mxCell>
                <mxCell id="9" value="+ __users: List&lt;User&gt;__" style="text;strokeColor=none;fillColor=none;align=left;verticalAlign=top;spacingLeft=4;spacingRight=4;overflow=hidden;rotatable=0;points=[[0,0.5],[1,0.5]];portConstraint=eastwest;" parent="8" vertex="1">
                    <mxGeometry y="26" width="180" height="26" as="geometry"/>
                </mxCell>
                <mxCell id="10" value="" style="line;strokeWidth=1;fillColor=none;align=left;verticalAlign=middle;spacingTop=-1;spacingLeft=3;spacingRight=3;rotatable=0;labelPosition=right;points=[];portConstraint=eastwest;strokeColor=inherit;" parent="8" vertex="1">
                    <mxGeometry y="52" width="180" height="8" as="geometry"/>
                </mxCell>
                <mxCell id="11" value="+ addUser(user: UserDO): void" style="text;strokeColor=none;fillColor=none;align=left;verticalAlign=top;spacingLeft=4;spacingRight=4;overflow=hidden;rotatable=0;points=[[0,0.5],[1,0.5]];portConstraint=eastwest;" parent="8" vertex="1">
                    <mxGeometry y="60" width="180" height="26" as="geometry"/>
                </mxCell>
                <mxCell id="16" value="+ getUser(id: int): UserDO" style="text;strokeColor=none;fillColor=none;align=left;verticalAlign=top;spacingLeft=4;spacingRight=4;overflow=hidden;rotatable=0;points=[[0,0.5],[1,0.5]];portConstraint=eastwest;" parent="8" vertex="1">
                    <mxGeometry y="86" width="180" height="26" as="geometry"/>
                </mxCell>
                <mxCell id="18" value="" style="endArrow=open;endFill=1;endSize=12;html=1;exitX=1.019;exitY=0.558;exitDx=0;exitDy=0;exitPerimeter=0;entryX=-0.012;entryY=0.518;entryDx=0;entryDy=0;entryPerimeter=0;" parent="1" source="3" target="10" edge="1">
                    <mxGeometry width="160" relative="1" as="geometry">
                        <mxPoint x="290" y="-80" as="sourcePoint"/>
                        <mxPoint x="450" y="-80" as="targetPoint"/>
                    </mxGeometry>
                </mxCell>
                <mxCell id="19" value="User" style="swimlane;fontStyle=1;align=center;verticalAlign=top;childLayout=stackLayout;horizontal=1;startSize=26;horizontalStack=0;resizeParent=1;resizeParentMax=0;resizeLast=0;collapsible=1;marginBottom=0;" parent="1" vertex="1">
                    <mxGeometry x="400" width="180" height="138" as="geometry"/>
                </mxCell>
                <mxCell id="20" value="+ id: int" style="text;strokeColor=none;fillColor=none;align=left;verticalAlign=top;spacingLeft=4;spacingRight=4;overflow=hidden;rotatable=0;points=[[0,0.5],[1,0.5]];portConstraint=eastwest;" parent="19" vertex="1">
                    <mxGeometry y="26" width="180" height="26" as="geometry"/>
                </mxCell>
                <mxCell id="24" value="+ name: String" style="text;strokeColor=none;fillColor=none;align=left;verticalAlign=top;spacingLeft=4;spacingRight=4;overflow=hidden;rotatable=0;points=[[0,0.5],[1,0.5]];portConstraint=eastwest;" parent="19" vertex="1">
                    <mxGeometry y="52" width="180" height="26" as="geometry"/>
                </mxCell>
                <mxCell id="25" value="+ email: String" style="text;strokeColor=none;fillColor=none;align=left;verticalAlign=top;spacingLeft=4;spacingRight=4;overflow=hidden;rotatable=0;points=[[0,0.5],[1,0.5]];portConstraint=eastwest;" parent="19" vertex="1">
                    <mxGeometry y="78" width="180" height="26" as="geometry"/>
                </mxCell>
                <mxCell id="21" value="" style="line;strokeWidth=1;fillColor=none;align=left;verticalAlign=middle;spacingTop=-1;spacingLeft=3;spacingRight=3;rotatable=0;labelPosition=right;points=[];portConstraint=eastwest;strokeColor=inherit;" parent="19" vertex="1">
                    <mxGeometry y="104" width="180" height="8" as="geometry"/>
                </mxCell>
                <mxCell id="22" value="+ getterAndSetters: Type" style="text;strokeColor=none;fillColor=none;align=left;verticalAlign=top;spacingLeft=4;spacingRight=4;overflow=hidden;rotatable=0;points=[[0,0.5],[1,0.5]];portConstraint=eastwest;" parent="19" vertex="1">
                    <mxGeometry y="112" width="180" height="26" as="geometry"/>
                </mxCell>
                <mxCell id="26" value="" style="endArrow=open;endFill=1;endSize=12;html=1;exitX=1.022;exitY=0.2;exitDx=0;exitDy=0;exitPerimeter=0;entryX=0;entryY=0.5;entryDx=0;entryDy=0;" parent="1" source="11" target="24" edge="1">
                    <mxGeometry width="160" relative="1" as="geometry">
                        <mxPoint x="510" y="195.52999999999997" as="sourcePoint"/>
                        <mxPoint x="603.72" y="189.99800000000005" as="targetPoint"/>
                    </mxGeometry>
                </mxCell>
                <mxCell id="27" value="&lt;p style=&quot;margin:0px;margin-top:4px;text-align:center;&quot;&gt;&lt;b&gt;PaymentGateway&lt;/b&gt;&lt;/p&gt;&lt;hr size=&quot;1&quot;&gt;&lt;p style=&quot;margin:0px;margin-left:4px;&quot;&gt;+ userController: UserController&lt;/p&gt;&lt;p style=&quot;margin:0px;margin-left:4px;&quot;&gt;+ instrumentController: InstrumentController&lt;/p&gt;&lt;p style=&quot;margin:0px;margin-left:4px;&quot;&gt;+ txnController: TxnController&lt;/p&gt;&lt;hr size=&quot;1&quot;&gt;&lt;p style=&quot;margin:0px;margin-left:4px;&quot;&gt;&lt;br&gt;&lt;/p&gt;&lt;p style=&quot;margin:0px;margin-left:4px;&quot;&gt;&lt;br&gt;&lt;/p&gt;" style="verticalAlign=top;align=left;overflow=fill;fontSize=12;fontFamily=Helvetica;html=1;fillColor=#008a00;fontColor=#ffffff;strokeColor=#005700;" parent="1" vertex="1">
                    <mxGeometry x="-255" y="385" width="190" height="90" as="geometry"/>
                </mxCell>
                <mxCell id="28" value="" style="endArrow=open;startArrow=none;endFill=0;startFill=0;endSize=8;html=1;verticalAlign=bottom;labelBackgroundColor=none;strokeWidth=1;entryX=0.5;entryY=1;entryDx=0;entryDy=0;exitX=0.5;exitY=0;exitDx=0;exitDy=0;" parent="1" source="27" target="3" edge="1">
                    <mxGeometry width="160" relative="1" as="geometry">
                        <mxPoint x="220" y="250" as="sourcePoint"/>
                        <mxPoint x="380" y="250" as="targetPoint"/>
                    </mxGeometry>
                </mxCell>
                <mxCell id="29" value="&lt;p style=&quot;margin:0px;margin-top:4px;text-align:center;&quot;&gt;&lt;b&gt;TxnController&lt;/b&gt;&lt;/p&gt;&lt;hr size=&quot;1&quot;&gt;&lt;p style=&quot;margin:0px;margin-left:4px;&quot;&gt;+ txnService: TxnService&lt;/p&gt;&lt;p style=&quot;margin:0px;margin-left:4px;&quot;&gt;&lt;br&gt;&lt;/p&gt;&lt;hr size=&quot;1&quot;&gt;&lt;p style=&quot;margin:0px;margin-left:4px;&quot;&gt;+ makePayment(txn: TransactionDO)&lt;/p&gt;&lt;p style=&quot;margin:0px;margin-left:4px;&quot;&gt;+getTxnHistory(user: UserDO): Type&lt;/p&gt;&lt;p style=&quot;margin:0px;margin-left:4px;&quot;&gt;&lt;br&gt;&lt;/p&gt;" style="verticalAlign=top;align=left;overflow=fill;fontSize=12;fontFamily=Helvetica;html=1;fillColor=#60a917;fontColor=#ffffff;strokeColor=#2D7600;" parent="1" vertex="1">
                    <mxGeometry y="375" width="206" height="110" as="geometry"/>
                </mxCell>
                <mxCell id="30" value="" style="endArrow=open;startArrow=none;endFill=0;startFill=0;endSize=8;html=1;verticalAlign=bottom;labelBackgroundColor=none;strokeWidth=1;entryX=0;entryY=0.5;entryDx=0;entryDy=0;exitX=1;exitY=0.5;exitDx=0;exitDy=0;" parent="1" target="29" edge="1" source="27">
                    <mxGeometry width="160" relative="1" as="geometry">
                        <mxPoint x="-40" y="430" as="sourcePoint"/>
                        <mxPoint x="228.48000000000002" y="151.95000000000005" as="targetPoint"/>
                    </mxGeometry>
                </mxCell>
                <mxCell id="31" value="&lt;p style=&quot;margin:0px;margin-top:4px;text-align:center;&quot;&gt;&lt;b&gt;TxnService&lt;/b&gt;&lt;/p&gt;&lt;hr size=&quot;1&quot;&gt;&lt;p style=&quot;margin:0px;margin-left:4px;&quot;&gt;+ instrumentController: InstrumentController&lt;/p&gt;&lt;p style=&quot;margin:0px;margin-left:4px;&quot;&gt;+ obj: Map&amp;lt;User, List&amp;lt;Transaction&amp;gt;&amp;gt;&lt;/p&gt;&lt;p style=&quot;margin:0px;margin-left:4px;&quot;&gt;+ processor: Processor&lt;/p&gt;&lt;p style=&quot;margin:0px;margin-left:4px;&quot;&gt;&lt;br&gt;&lt;/p&gt;&lt;hr size=&quot;1&quot;&gt;&lt;p style=&quot;margin:0px;margin-left:4px;&quot;&gt;+ makePayment(txn: TransactionDO)&lt;/p&gt;&lt;p style=&quot;margin:0px;margin-left:4px;&quot;&gt;+getTxnHistory(user: UserDO): Type&lt;/p&gt;&lt;p style=&quot;margin:0px;margin-left:4px;&quot;&gt;&lt;br&gt;&lt;/p&gt;" style="verticalAlign=top;align=left;overflow=fill;fontSize=12;fontFamily=Helvetica;html=1;fillColor=#60a917;fontColor=#ffffff;strokeColor=#2D7600;" parent="1" vertex="1">
                    <mxGeometry x="340" y="360" width="260" height="140" as="geometry"/>
                </mxCell>
                <mxCell id="34" value="&lt;p style=&quot;margin:0px;margin-top:4px;text-align:center;&quot;&gt;&lt;b&gt;Processor&lt;/b&gt;&lt;/p&gt;&lt;p style=&quot;margin:0px;margin-left:4px;&quot;&gt;&lt;br&gt;&lt;/p&gt;&lt;hr size=&quot;1&quot;&gt;&lt;p style=&quot;margin:0px;margin-left:4px;&quot;&gt;+ processPayment(txn: TransactionDO)&lt;/p&gt;" style="verticalAlign=top;align=left;overflow=fill;fontSize=12;fontFamily=Helvetica;html=1;" parent="1" vertex="1">
                    <mxGeometry x="710" y="260" width="230" height="80" as="geometry"/>
                </mxCell>
                <mxCell id="35" value="&lt;p style=&quot;margin:0px;margin-top:4px;text-align:center;&quot;&gt;&lt;b&gt;Transaction&lt;/b&gt;&lt;/p&gt;&lt;hr size=&quot;1&quot;&gt;&lt;p style=&quot;margin:0px;margin-left:4px;&quot;&gt;+ txnId: int&lt;/p&gt;&lt;p style=&quot;margin:0px;margin-left:4px;&quot;&gt;+ Amount: int&lt;/p&gt;&lt;p style=&quot;margin:0px;margin-left:4px;&quot;&gt;+ senderUserId: int&lt;/p&gt;&lt;p style=&quot;margin:0px;margin-left:4px;&quot;&gt;+ receiverUserId: int&lt;/p&gt;&lt;p style=&quot;margin:0px;margin-left:4px;&quot;&gt;+ debitInstrumentId: int&lt;/p&gt;&lt;p style=&quot;margin:0px;margin-left:4px;&quot;&gt;+ creditInstrumentId: int&lt;/p&gt;&lt;p style=&quot;margin:0px;margin-left:4px;&quot;&gt;+ status: TransactionStatus&lt;/p&gt;&lt;hr size=&quot;1&quot;&gt;&lt;p style=&quot;margin:0px;margin-left:4px;&quot;&gt;&lt;br&gt;&lt;/p&gt;" style="verticalAlign=top;align=left;overflow=fill;fontSize=12;fontFamily=Helvetica;html=1;" parent="1" vertex="1">
                    <mxGeometry x="905" y="440" width="165" height="140" as="geometry"/>
                </mxCell>
                <mxCell id="36" value="&lt;p style=&quot;margin:0px;margin-top:4px;text-align:center;&quot;&gt;&lt;b&gt;TransactionStatus&lt;/b&gt;&lt;/p&gt;&lt;p style=&quot;margin:0px;margin-left:4px;&quot;&gt;+ SUCCESS&lt;/p&gt;&lt;p style=&quot;margin:0px;margin-left:4px;&quot;&gt;+ PENDING&lt;/p&gt;&lt;p style=&quot;margin:0px;margin-left:4px;&quot;&gt;+ DENIED&lt;/p&gt;&lt;p style=&quot;margin:0px;margin-left:4px;&quot;&gt;&lt;br&gt;&lt;/p&gt;&lt;p style=&quot;margin:0px;margin-left:4px;&quot;&gt;&lt;br&gt;&lt;/p&gt;" style="verticalAlign=top;align=left;overflow=fill;fontSize=12;fontFamily=Helvetica;html=1;" parent="1" vertex="1">
                    <mxGeometry x="1220" y="470" width="260" height="80" as="geometry"/>
                </mxCell>
                <mxCell id="37" value="" style="endArrow=open;startArrow=none;endFill=0;startFill=0;endSize=8;html=1;verticalAlign=bottom;labelBackgroundColor=none;strokeWidth=1;exitX=1;exitY=0.5;exitDx=0;exitDy=0;entryX=0;entryY=0.75;entryDx=0;entryDy=0;" parent="1" source="31" target="34" edge="1">
                    <mxGeometry width="160" relative="1" as="geometry">
                        <mxPoint x="530" y="533.61" as="sourcePoint"/>
                        <mxPoint x="650" y="470" as="targetPoint"/>
                    </mxGeometry>
                </mxCell>
                <mxCell id="38" value="" style="endArrow=open;startArrow=none;endFill=0;startFill=0;endSize=8;html=1;verticalAlign=bottom;labelBackgroundColor=none;strokeWidth=1;exitX=0.999;exitY=0.677;exitDx=0;exitDy=0;exitPerimeter=0;entryX=0.006;entryY=0.163;entryDx=0;entryDy=0;entryPerimeter=0;" parent="1" source="31" target="35" edge="1">
                    <mxGeometry width="160" relative="1" as="geometry">
                        <mxPoint x="590" y="490" as="sourcePoint"/>
                        <mxPoint x="660" y="480" as="targetPoint"/>
                    </mxGeometry>
                </mxCell>
                <mxCell id="40" value="" style="endArrow=open;endSize=12;dashed=1;html=1;entryX=0;entryY=0.5;entryDx=0;entryDy=0;" parent="1" source="35" target="36" edge="1">
                    <mxGeometry width="160" relative="1" as="geometry">
                        <mxPoint x="910" y="620" as="sourcePoint"/>
                        <mxPoint x="1070" y="620" as="targetPoint"/>
                    </mxGeometry>
                </mxCell>
                <mxCell id="41" value="" style="endArrow=open;startArrow=none;endFill=0;startFill=0;endSize=8;html=1;verticalAlign=bottom;labelBackgroundColor=none;strokeWidth=1;" parent="1" source="29" target="31" edge="1">
                    <mxGeometry width="160" relative="1" as="geometry">
                        <mxPoint x="192.47000000000003" y="341.23" as="sourcePoint"/>
                        <mxPoint x="345.2360000000001" y="277.62" as="targetPoint"/>
                    </mxGeometry>
                </mxCell>
                <mxCell id="43" value="&lt;p style=&quot;margin:0px;margin-top:4px;text-align:center;&quot;&gt;&lt;b&gt;InstrumentController&lt;/b&gt;&lt;/p&gt;&lt;hr size=&quot;1&quot;&gt;&lt;p style=&quot;margin:0px;margin-left:4px;&quot;&gt;+ obj: InstumentServiceFactory&lt;/p&gt;&lt;p style=&quot;margin:0px;margin-left:4px;&quot;&gt;&lt;br&gt;&lt;/p&gt;&lt;hr size=&quot;1&quot;&gt;&lt;p style=&quot;margin:0px;margin-left:4px;&quot;&gt;+ addInstrument(inst: InstrumentDO)&lt;/p&gt;&lt;p style=&quot;margin:0px;margin-left:4px;&quot;&gt;+getInstrument(type: InstrumentType, userId: int,&amp;nbsp; instrumentId: int)&lt;/p&gt;&lt;p style=&quot;margin:0px;margin-left:4px;&quot;&gt;&lt;br&gt;&lt;/p&gt;" style="verticalAlign=top;align=left;overflow=fill;fontSize=12;fontFamily=Helvetica;html=1;fillColor=#60a917;fontColor=#ffffff;strokeColor=#2D7600;" parent="1" vertex="1">
                    <mxGeometry x="-350" y="740" width="380" height="110" as="geometry"/>
                </mxCell>
                <mxCell id="44" value="&lt;p style=&quot;margin:0px;margin-top:4px;text-align:center;&quot;&gt;&lt;b&gt;InstrumentServiceFactory&lt;/b&gt;&lt;/p&gt;&lt;hr size=&quot;1&quot;&gt;&lt;p style=&quot;margin:0px;margin-left:4px;&quot;&gt;+ getInstrumentService(type: InstrumentType): InstrumentService&lt;/p&gt;&lt;p style=&quot;margin:0px;margin-left:4px;&quot;&gt;&lt;br&gt;&lt;/p&gt;&lt;hr size=&quot;1&quot;&gt;&lt;p style=&quot;margin:0px;margin-left:4px;&quot;&gt;&lt;br&gt;&lt;/p&gt;&lt;p style=&quot;margin:0px;margin-left:4px;&quot;&gt;&lt;br&gt;&lt;/p&gt;" style="verticalAlign=top;align=left;overflow=fill;fontSize=12;fontFamily=Helvetica;html=1;" parent="1" vertex="1">
                    <mxGeometry x="140" y="780" width="360" height="50" as="geometry"/>
                </mxCell>
                <mxCell id="45" value="&lt;p style=&quot;margin:0px;margin-top:4px;text-align:center;&quot;&gt;&lt;b&gt;InstrumentDO&lt;/b&gt;&lt;/p&gt;&lt;hr size=&quot;1&quot;&gt;&lt;p style=&quot;margin:0px;margin-left:4px;&quot;&gt;+ instrumentId: int&lt;/p&gt;&lt;p style=&quot;margin:0px;margin-left:4px;&quot;&gt;+ userId: int&lt;/p&gt;&lt;p style=&quot;margin:0px;margin-left:4px;&quot;&gt;+ type: InstrumentType&lt;/p&gt;&lt;p style=&quot;margin:0px;margin-left:4px;&quot;&gt;+ bankAccountNumber: String&lt;/p&gt;&lt;p style=&quot;margin:0px;margin-left:4px;&quot;&gt;+ ifscCode: String&lt;/p&gt;&lt;p style=&quot;margin:0px;margin-left:4px;&quot;&gt;+ cardNumber: String&lt;/p&gt;&lt;p style=&quot;margin:0px;margin-left:4px;&quot;&gt;+ cvvNumber: String&lt;/p&gt;&lt;p style=&quot;margin:0px;margin-left:4px;&quot;&gt;&lt;br&gt;&lt;/p&gt;&lt;hr size=&quot;1&quot;&gt;&lt;p style=&quot;margin:0px;margin-left:4px;&quot;&gt;&lt;br&gt;&lt;/p&gt;" style="verticalAlign=top;align=left;overflow=fill;fontSize=12;fontFamily=Helvetica;html=1;" parent="1" vertex="1">
                    <mxGeometry x="-650" y="715" width="180" height="160" as="geometry"/>
                </mxCell>
                <mxCell id="47" value="&lt;p style=&quot;margin:0px;margin-top:4px;text-align:center;&quot;&gt;&lt;i&gt;&amp;lt;&amp;lt;Abstract class&amp;gt;&amp;gt;&lt;/i&gt;&lt;br&gt;&lt;b&gt;InstrumentService&lt;/b&gt;&lt;/p&gt;&lt;hr size=&quot;1&quot;&gt;&lt;p style=&quot;margin:0px;margin-left:4px;&quot;&gt;+ __obj: Map&amp;lt;userId, List&amp;lt;Instrument&amp;gt;&amp;gt; __&lt;br&gt;&lt;/p&gt;&lt;hr size=&quot;1&quot;&gt;&lt;p style=&quot;margin:0px;margin-left:4px;&quot;&gt;+ addInstrument(inst: InstrumentDO)&lt;br&gt;+ getInstrument(userId: int, instrumentId: int)&lt;/p&gt;" style="verticalAlign=top;align=left;overflow=fill;fontSize=12;fontFamily=Helvetica;html=1;" parent="1" vertex="1">
                    <mxGeometry x="590" y="745" width="260" height="120" as="geometry"/>
                </mxCell>
                <mxCell id="48" value="&lt;p style=&quot;margin:0px;margin-top:4px;text-align:center;&quot;&gt;&lt;i&gt;&amp;lt;&amp;lt;Abstract class&amp;gt;&amp;gt;&lt;/i&gt;&lt;br&gt;&lt;b&gt;Instrument&lt;/b&gt;&lt;/p&gt;&lt;hr size=&quot;1&quot;&gt;&lt;p style=&quot;margin:0px;margin-left:4px;&quot;&gt;+ instrumentId: int&lt;br&gt;&lt;/p&gt;&lt;p style=&quot;margin:0px;margin-left:4px;&quot;&gt;+ userId: int&lt;/p&gt;&lt;p style=&quot;margin:0px;margin-left:4px;&quot;&gt;+ type: InstrumentType&lt;/p&gt;" style="verticalAlign=top;align=left;overflow=fill;fontSize=12;fontFamily=Helvetica;html=1;" parent="1" vertex="1">
                    <mxGeometry x="1010" y="750" width="266" height="110" as="geometry"/>
                </mxCell>
                <mxCell id="49" value="&lt;p style=&quot;margin:0px;margin-top:4px;text-align:center;&quot;&gt;&lt;b&gt;InstrumentType: Enum&lt;/b&gt;&lt;/p&gt;&lt;hr size=&quot;1&quot;&gt;&lt;p style=&quot;margin:0px;margin-left:4px;&quot;&gt;+ BANK&lt;/p&gt;&lt;p style=&quot;margin:0px;margin-left:4px;&quot;&gt;+ CARD&lt;/p&gt;&lt;hr size=&quot;1&quot;&gt;&lt;p style=&quot;margin:0px;margin-left:4px;&quot;&gt;&lt;br&gt;&lt;/p&gt;" style="verticalAlign=top;align=left;overflow=fill;fontSize=12;fontFamily=Helvetica;html=1;" parent="1" vertex="1">
                    <mxGeometry x="1430" y="755" width="180" height="80" as="geometry"/>
                </mxCell>
                <mxCell id="51" value="&lt;p style=&quot;margin:0px;margin-top:4px;text-align:center;&quot;&gt;&lt;b&gt;BankInstrument&lt;/b&gt;&lt;/p&gt;&lt;hr size=&quot;1&quot;&gt;&lt;p style=&quot;margin:0px;margin-left:4px;&quot;&gt;+ bankAccountNumber: String&lt;/p&gt;&lt;p style=&quot;margin:0px;margin-left:4px;&quot;&gt;+ ifsc: String&lt;/p&gt;" style="verticalAlign=top;align=left;overflow=fill;fontSize=12;fontFamily=Helvetica;html=1;" parent="1" vertex="1">
                    <mxGeometry x="1010" y="920" width="180" height="80" as="geometry"/>
                </mxCell>
                <mxCell id="52" value="&lt;p style=&quot;margin:0px;margin-top:4px;text-align:center;&quot;&gt;&lt;b&gt;CardInstrument&lt;/b&gt;&lt;/p&gt;&lt;hr size=&quot;1&quot;&gt;&lt;p style=&quot;margin:0px;margin-left:4px;&quot;&gt;+ cardNumber: String&lt;/p&gt;&lt;p style=&quot;margin:0px;margin-left:4px;&quot;&gt;+ cvvNumber: String&lt;/p&gt;" style="verticalAlign=top;align=left;overflow=fill;fontSize=12;fontFamily=Helvetica;html=1;" parent="1" vertex="1">
                    <mxGeometry x="1220" y="920" width="180" height="80" as="geometry"/>
                </mxCell>
                <mxCell id="53" value="&lt;p style=&quot;margin:0px;margin-top:4px;text-align:center;&quot;&gt;&lt;b&gt;BankService&lt;/b&gt;&lt;/p&gt;&lt;hr size=&quot;1&quot;&gt;&lt;p style=&quot;margin:0px;margin-left:4px;&quot;&gt;+ addInstrument(inst: InsttrumentDO)&lt;/p&gt;&lt;p style=&quot;margin:0px;margin-left:4px;&quot;&gt;+ getInstrument(userId: int, instrumentId: int)&lt;/p&gt;" style="verticalAlign=top;align=left;overflow=fill;fontSize=12;fontFamily=Helvetica;html=1;" parent="1" vertex="1">
                    <mxGeometry x="430" y="920" width="260" height="80" as="geometry"/>
                </mxCell>
                <mxCell id="54" value="Bank Specific logic to create bank and fetch Instument" style="shape=note2;boundedLbl=1;whiteSpace=wrap;html=1;size=25;verticalAlign=top;align=center;" parent="1" vertex="1">
                    <mxGeometry x="510" y="1020" width="140" height="80" as="geometry"/>
                </mxCell>
                <mxCell id="56" value="&lt;p style=&quot;margin:0px;margin-top:4px;text-align:center;&quot;&gt;&lt;b&gt;CardService&lt;/b&gt;&lt;/p&gt;&lt;hr size=&quot;1&quot;&gt;&lt;p style=&quot;margin:0px;margin-left:4px;&quot;&gt;+ addInstrument(inst: InsttrumentDO)&lt;/p&gt;&lt;p style=&quot;margin:0px;margin-left:4px;&quot;&gt;+ getInstrument(userId: int, instrumentId: int)&lt;/p&gt;" style="verticalAlign=top;align=left;overflow=fill;fontSize=12;fontFamily=Helvetica;html=1;" parent="1" vertex="1">
                    <mxGeometry x="710" y="920" width="260" height="80" as="geometry"/>
                </mxCell>
                <mxCell id="59" value="" style="endArrow=open;startArrow=none;endFill=0;startFill=0;endSize=8;html=1;verticalAlign=bottom;labelBackgroundColor=none;strokeWidth=1;entryX=0.5;entryY=0;entryDx=0;entryDy=0;exitX=0.5;exitY=1;exitDx=0;exitDy=0;" parent="1" source="27" target="43" edge="1">
                    <mxGeometry width="160" relative="1" as="geometry">
                        <mxPoint x="74.23000000000025" y="523.61" as="sourcePoint"/>
                        <mxPoint x="159.99599999999987" y="419.9999999999999" as="targetPoint"/>
                    </mxGeometry>
                </mxCell>
                <mxCell id="60" value="" style="endArrow=open;endSize=12;dashed=1;html=1;exitX=0;exitY=0.5;exitDx=0;exitDy=0;entryX=1;entryY=0.5;entryDx=0;entryDy=0;" parent="1" source="43" target="45" edge="1">
                    <mxGeometry width="160" relative="1" as="geometry">
                        <mxPoint x="120" y="860" as="sourcePoint"/>
                        <mxPoint x="280" y="860" as="targetPoint"/>
                    </mxGeometry>
                </mxCell>
                <mxCell id="61" value="" style="endArrow=open;startArrow=none;endFill=0;startFill=0;endSize=8;html=1;verticalAlign=bottom;labelBackgroundColor=none;strokeWidth=1;" parent="1" source="31" target="43" edge="1">
                    <mxGeometry width="160" relative="1" as="geometry">
                        <mxPoint x="176.01000000000016" y="499.99999999999994" as="sourcePoint"/>
                        <mxPoint x="180.00000000000017" y="764.82" as="targetPoint"/>
                    </mxGeometry>
                </mxCell>
                <mxCell id="62" value="" style="endArrow=open;startArrow=none;endFill=0;startFill=0;endSize=8;html=1;verticalAlign=bottom;labelBackgroundColor=none;strokeWidth=1;exitX=1.008;exitY=0.581;exitDx=0;exitDy=0;exitPerimeter=0;entryX=0;entryY=0.5;entryDx=0;entryDy=0;" parent="1" source="43" target="44" edge="1">
                    <mxGeometry width="160" relative="1" as="geometry">
                        <mxPoint x="304.05970149253744" y="539.9999999999999" as="sourcePoint"/>
                        <mxPoint x="-55.761194029850685" y="750" as="targetPoint"/>
                    </mxGeometry>
                </mxCell>
                <mxCell id="63" value="" style="endArrow=open;startArrow=none;endFill=0;startFill=0;endSize=8;html=1;verticalAlign=bottom;labelBackgroundColor=none;strokeWidth=1;exitX=1;exitY=0.5;exitDx=0;exitDy=0;entryX=0;entryY=0.5;entryDx=0;entryDy=0;" parent="1" source="44" target="47" edge="1">
                    <mxGeometry width="160" relative="1" as="geometry">
                        <mxPoint x="43.04000000000019" y="813.9099999999999" as="sourcePoint"/>
                        <mxPoint x="210" y="980" as="targetPoint"/>
                    </mxGeometry>
                </mxCell>
                <mxCell id="64" value="" style="endArrow=open;startArrow=none;endFill=0;startFill=0;endSize=8;html=1;verticalAlign=bottom;labelBackgroundColor=none;strokeWidth=1;entryX=0;entryY=0.5;entryDx=0;entryDy=0;exitX=1;exitY=0.5;exitDx=0;exitDy=0;" parent="1" source="47" target="48" edge="1">
                    <mxGeometry width="160" relative="1" as="geometry">
                        <mxPoint x="390" y="1050" as="sourcePoint"/>
                        <mxPoint x="454.02" y="1150" as="targetPoint"/>
                    </mxGeometry>
                </mxCell>
                <mxCell id="65" value="" style="endArrow=open;startArrow=none;endFill=0;startFill=0;endSize=8;html=1;verticalAlign=bottom;labelBackgroundColor=none;strokeWidth=1;entryX=0;entryY=0.625;entryDx=0;entryDy=0;entryPerimeter=0;exitX=1;exitY=0.5;exitDx=0;exitDy=0;" parent="1" source="48" target="49" edge="1">
                    <mxGeometry width="160" relative="1" as="geometry">
                        <mxPoint x="750" y="1058" as="sourcePoint"/>
                        <mxPoint x="840" y="1072.5" as="targetPoint"/>
                    </mxGeometry>
                </mxCell>
                <mxCell id="66" value="" style="endArrow=block;endSize=16;endFill=0;html=1;exitX=0.547;exitY=1.022;exitDx=0;exitDy=0;exitPerimeter=0;entryX=0.75;entryY=0;entryDx=0;entryDy=0;" parent="1" source="48" target="51" edge="1">
                    <mxGeometry width="160" relative="1" as="geometry">
                        <mxPoint x="650" y="1110" as="sourcePoint"/>
                        <mxPoint x="810" y="1110" as="targetPoint"/>
                    </mxGeometry>
                </mxCell>
                <mxCell id="67" value="" style="endArrow=block;endSize=16;endFill=0;html=1;exitX=0.6;exitY=1.002;exitDx=0;exitDy=0;exitPerimeter=0;" parent="1" source="48" target="52" edge="1">
                    <mxGeometry width="160" relative="1" as="geometry">
                        <mxPoint x="635.502" y="1132.42" as="sourcePoint"/>
                        <mxPoint x="559" y="1230" as="targetPoint"/>
                    </mxGeometry>
                </mxCell>
                <mxCell id="68" value="" style="endArrow=block;endSize=16;endFill=0;html=1;" parent="1" source="47" target="53" edge="1">
                    <mxGeometry width="160" relative="1" as="geometry">
                        <mxPoint x="210.00199999999995" y="1110" as="sourcePoint"/>
                        <mxPoint x="140" y="1200" as="targetPoint"/>
                    </mxGeometry>
                </mxCell>
                <mxCell id="69" value="" style="endArrow=block;endSize=16;endFill=0;html=1;exitX=0.48;exitY=1.005;exitDx=0;exitDy=0;exitPerimeter=0;entryX=0.25;entryY=0;entryDx=0;entryDy=0;" parent="1" source="47" target="56" edge="1">
                    <mxGeometry width="160" relative="1" as="geometry">
                        <mxPoint x="237.8947368421052" y="1120" as="sourcePoint"/>
                        <mxPoint x="204.73684210526335" y="1210" as="targetPoint"/>
                    </mxGeometry>
                </mxCell>
                <mxCell id="70" value="" style="edgeStyle=elbowEdgeStyle;html=1;endArrow=none;elbow=vertical;exitX=0.5;exitY=1;exitDx=0;exitDy=0;entryX=0.331;entryY=-0.002;entryDx=0;entryDy=0;entryPerimeter=0;" parent="1" source="53" target="54" edge="1">
                    <mxGeometry width="160" relative="1" as="geometry">
                        <mxPoint x="20" y="1440" as="sourcePoint"/>
                        <mxPoint x="180" y="1440" as="targetPoint"/>
                    </mxGeometry>
                </mxCell>
                <mxCell id="81" value="App" style="shape=umlLifeline;perimeter=lifelinePerimeter;whiteSpace=wrap;html=1;container=1;collapsible=0;recursiveResize=0;outlineConnect=0;" parent="1" vertex="1">
                    <mxGeometry x="-807" y="1349" width="100" height="560" as="geometry"/>
                </mxCell>
                <mxCell id="112" value="" style="html=1;points=[];perimeter=orthogonalPerimeter;fillColor=#60a917;fontColor=#ffffff;strokeColor=#2D7600;" parent="81" vertex="1">
                    <mxGeometry x="45" y="60" width="10" height="190" as="geometry"/>
                </mxCell>
                <mxCell id="113" value="" style="html=1;points=[];perimeter=orthogonalPerimeter;fillColor=#60a917;fontColor=#ffffff;strokeColor=#2D7600;" parent="81" vertex="1">
                    <mxGeometry x="45" y="330" width="10" height="230" as="geometry"/>
                </mxCell>
                <mxCell id="82" value="User Service" style="shape=umlLifeline;perimeter=lifelinePerimeter;whiteSpace=wrap;html=1;container=1;collapsible=0;recursiveResize=0;outlineConnect=0;" parent="1" vertex="1">
                    <mxGeometry x="-620" y="1349" width="100" height="550" as="geometry"/>
                </mxCell>
                <mxCell id="92" value="" style="html=1;points=[];perimeter=orthogonalPerimeter;fillColor=#60a917;fontColor=#ffffff;strokeColor=#2D7600;" parent="82" vertex="1">
                    <mxGeometry x="45" y="60" width="10" height="30" as="geometry"/>
                </mxCell>
                <mxCell id="95" value="" style="html=1;points=[];perimeter=orthogonalPerimeter;fillColor=#60a917;fontColor=#ffffff;strokeColor=#2D7600;" parent="82" vertex="1">
                    <mxGeometry x="45.00000000000005" y="110" width="10" height="30" as="geometry"/>
                </mxCell>
                <mxCell id="114" value="" style="html=1;points=[];perimeter=orthogonalPerimeter;fillColor=#60a917;fontColor=#ffffff;strokeColor=#2D7600;" parent="82" vertex="1">
                    <mxGeometry x="45" y="330" width="10" height="10" as="geometry"/>
                </mxCell>
                <mxCell id="83" value="Instrument Service" style="shape=umlLifeline;perimeter=lifelinePerimeter;whiteSpace=wrap;html=1;container=1;collapsible=0;recursiveResize=0;outlineConnect=0;" parent="1" vertex="1">
                    <mxGeometry x="-430" y="1349" width="100" height="550" as="geometry"/>
                </mxCell>
                <mxCell id="98" value="" style="html=1;points=[];perimeter=orthogonalPerimeter;fillColor=#60a917;fontColor=#ffffff;strokeColor=#2D7600;" parent="83" vertex="1">
                    <mxGeometry x="47.00000000000006" y="160" width="10" height="30" as="geometry"/>
                </mxCell>
                <mxCell id="101" value="" style="html=1;points=[];perimeter=orthogonalPerimeter;fillColor=#60a917;fontColor=#ffffff;strokeColor=#2D7600;" parent="83" vertex="1">
                    <mxGeometry x="47.00000000000006" y="220" width="10" height="30" as="geometry"/>
                </mxCell>
                <mxCell id="115" value="" style="html=1;points=[];perimeter=orthogonalPerimeter;fillColor=#60a917;fontColor=#ffffff;strokeColor=#2D7600;" vertex="1" parent="83">
                    <mxGeometry x="47" y="380" width="10" height="10" as="geometry"/>
                </mxCell>
                <mxCell id="84" value="Txn Service" style="shape=umlLifeline;perimeter=lifelinePerimeter;whiteSpace=wrap;html=1;container=1;collapsible=0;recursiveResize=0;outlineConnect=0;" parent="1" vertex="1">
                    <mxGeometry x="-260" y="1349" width="100" height="580" as="geometry"/>
                </mxCell>
                <mxCell id="120" value="" style="html=1;points=[];perimeter=orthogonalPerimeter;fillColor=#60a917;fontColor=#ffffff;strokeColor=#2D7600;" vertex="1" parent="84">
                    <mxGeometry x="50" y="410" width="10" height="170" as="geometry"/>
                </mxCell>
                <mxCell id="85" value="Processor&lt;span style=&quot;color: rgba(0, 0, 0, 0); font-family: monospace; font-size: 0px; text-align: start;&quot;&gt;%3CmxGraphModel%3E%3Croot%3E%3CmxCell%20id%3D%220%22%2F%3E%3CmxCell%20id%3D%221%22%20parent%3D%220%22%2F%3E%3CmxCell%20id%3D%222%22%20value%3D%22Txn%20Service%22%20style%3D%22shape%3DumlLifeline%3Bperimeter%3DlifelinePerimeter%3BwhiteSpace%3Dwrap%3Bhtml%3D1%3Bcontainer%3D1%3Bcollapsible%3D0%3BrecursiveResize%3D0%3BoutlineConnect%3D0%3B%22%20vertex%3D%221%22%20parent%3D%221%22%3E%3CmxGeometry%20x%3D%22-250%22%20y%3D%221270%22%20width%3D%22100%22%20height%3D%22300%22%20as%3D%22geometry%22%2F%3E%3C%2FmxCell%3E%3C%2Froot%3E%3C%2FmxGraphModel%3E&lt;/span&gt;" style="shape=umlLifeline;perimeter=lifelinePerimeter;whiteSpace=wrap;html=1;container=1;collapsible=0;recursiveResize=0;outlineConnect=0;" parent="1" vertex="1">
                    <mxGeometry x="-80" y="1349" width="100" height="550" as="geometry"/>
                </mxCell>
                <mxCell id="122" value="" style="html=1;points=[];perimeter=orthogonalPerimeter;fillColor=#60a917;fontColor=#ffffff;strokeColor=#2D7600;" vertex="1" parent="85">
                    <mxGeometry x="45" y="470" width="10" height="10" as="geometry"/>
                </mxCell>
                <mxCell id="86" value="Notification" style="shape=umlLifeline;perimeter=lifelinePerimeter;whiteSpace=wrap;html=1;container=1;collapsible=0;recursiveResize=0;outlineConnect=0;" parent="1" vertex="1">
                    <mxGeometry x="90" y="1349" width="100" height="550" as="geometry"/>
                </mxCell>
                <mxCell id="121" value="" style="html=1;points=[];perimeter=orthogonalPerimeter;fillColor=#60a917;fontColor=#ffffff;strokeColor=#2D7600;" vertex="1" parent="86">
                    <mxGeometry x="50" y="500" width="10" height="10" as="geometry"/>
                </mxCell>
                <mxCell id="93" value="/addUser" style="html=1;verticalAlign=bottom;endArrow=block;entryX=0;entryY=0;" parent="1" source="81" target="92" edge="1">
                    <mxGeometry relative="1" as="geometry">
                        <mxPoint x="-660" y="1519" as="sourcePoint"/>
                    </mxGeometry>
                </mxCell>
                <mxCell id="94" value="create user with userId1" style="html=1;verticalAlign=bottom;endArrow=open;dashed=1;endSize=8;exitX=0;exitY=0.95;" parent="1" source="92" target="81" edge="1">
                    <mxGeometry relative="1" as="geometry">
                        <mxPoint x="-660" y="1595" as="targetPoint"/>
                    </mxGeometry>
                </mxCell>
                <mxCell id="97" value="create user with userId2" style="html=1;verticalAlign=bottom;endArrow=open;dashed=1;endSize=8;exitX=0;exitY=0.95;" parent="1" source="95" target="81" edge="1">
                    <mxGeometry x="0.0028" relative="1" as="geometry">
                        <mxPoint x="-770.0014285714285" y="1542.5" as="targetPoint"/>
                        <mxPoint as="offset"/>
                    </mxGeometry>
                </mxCell>
                <mxCell id="96" value="/addUser" style="html=1;verticalAlign=bottom;endArrow=block;entryX=0;entryY=0;" parent="1" source="81" target="95" edge="1">
                    <mxGeometry relative="1" as="geometry">
                        <mxPoint x="-770.0014285714285" y="1514" as="sourcePoint"/>
                    </mxGeometry>
                </mxCell>
                <mxCell id="99" value="create Bank for User1" style="html=1;verticalAlign=bottom;endArrow=open;dashed=1;endSize=8;exitX=0;exitY=0.95;" parent="1" source="98" target="81" edge="1">
                    <mxGeometry x="0.0028" relative="1" as="geometry">
                        <mxPoint x="-765.0714285714286" y="1552.5" as="targetPoint"/>
                        <mxPoint as="offset"/>
                    </mxGeometry>
                </mxCell>
                <mxCell id="100" value="/addBank by User1" style="html=1;verticalAlign=bottom;endArrow=block;entryX=0;entryY=0;" parent="1" source="81" target="98" edge="1">
                    <mxGeometry relative="1" as="geometry">
                        <mxPoint x="-762.4499999999999" y="1522.1000000000001" as="sourcePoint"/>
                    </mxGeometry>
                </mxCell>
                <mxCell id="103" value="/addBank by User2" style="html=1;verticalAlign=bottom;endArrow=block;entryX=0;entryY=0;" parent="1" source="81" target="101" edge="1">
                    <mxGeometry relative="1" as="geometry">
                        <mxPoint x="-775.0714285714286" y="1669" as="sourcePoint"/>
                    </mxGeometry>
                </mxCell>
                <mxCell id="102" value="create Bank for User1" style="html=1;verticalAlign=bottom;endArrow=open;dashed=1;endSize=8;exitX=0;exitY=0.95;" parent="1" source="101" target="81" edge="1">
                    <mxGeometry x="0.0028" relative="1" as="geometry">
                        <mxPoint x="-775.0714285714286" y="1697.5" as="targetPoint"/>
                        <mxPoint as="offset"/>
                    </mxGeometry>
                </mxCell>
                <mxCell id="105" value="/getUserDetails&lt;br&gt;(U2 details using emailId or UserId)" style="html=1;verticalAlign=bottom;endArrow=block;" parent="1" source="81" target="82" edge="1">
                    <mxGeometry relative="1" as="geometry">
                        <mxPoint x="-760" y="1809" as="sourcePoint"/>
                        <mxPoint x="-590" y="1809" as="targetPoint"/>
                        <Array as="points">
                            <mxPoint x="-640" y="1679"/>
                        </Array>
                    </mxGeometry>
                </mxCell>
                <mxCell id="106" value="/getInstrument(U1 instrument , so it can choose Debit Instrument)" style="html=1;verticalAlign=bottom;endArrow=block;" parent="1" source="81" target="83" edge="1">
                    <mxGeometry relative="1" as="geometry">
                        <mxPoint x="-793.9314285714289" y="1899" as="sourcePoint"/>
                        <mxPoint x="-579.93" y="1899" as="targetPoint"/>
                        <Array as="points">
                            <mxPoint x="-590" y="1729"/>
                            <mxPoint x="-470" y="1729"/>
                        </Array>
                    </mxGeometry>
                </mxCell>
                <mxCell id="107" value="/makePayment" style="html=1;verticalAlign=bottom;endArrow=block;exitX=0.2;exitY=0.348;exitDx=0;exitDy=0;exitPerimeter=0;" parent="1" source="113" target="84" edge="1">
                    <mxGeometry relative="1" as="geometry">
                        <mxPoint x="-750" y="1759" as="sourcePoint"/>
                        <mxPoint x="-385.21" y="1759" as="targetPoint"/>
                        <Array as="points">
                            <mxPoint x="-464.71" y="1759"/>
                        </Array>
                    </mxGeometry>
                </mxCell>
                <mxCell id="108" value="Get U2, U1 : credit-Debit Instruments" style="html=1;verticalAlign=bottom;endArrow=open;dashed=1;endSize=8;" parent="1" source="84" edge="1" target="83">
                    <mxGeometry x="0.0028" relative="1" as="geometry">
                        <mxPoint x="-330" y="1779" as="targetPoint"/>
                        <mxPoint as="offset"/>
                        <mxPoint x="-184.46" y="1789" as="sourcePoint"/>
                        <Array as="points">
                            <mxPoint x="-280" y="1799"/>
                        </Array>
                    </mxGeometry>
                </mxCell>
                <mxCell id="109" value="Pass to process &lt;br&gt;for processing,&lt;br&gt;assuming everything&lt;br&gt;&amp;nbsp;happends in real time" style="html=1;verticalAlign=bottom;endArrow=block;exitX=1.324;exitY=0.345;exitDx=0;exitDy=0;exitPerimeter=0;" parent="1" target="85" edge="1" source="120">
                    <mxGeometry x="0.1222" relative="1" as="geometry">
                        <mxPoint x="-180" y="1819" as="sourcePoint"/>
                        <mxPoint x="174.27999999999997" y="1819" as="targetPoint"/>
                        <Array as="points">
                            <mxPoint x="-109.93" y="1819"/>
                        </Array>
                        <mxPoint as="offset"/>
                    </mxGeometry>
                </mxCell>
                <mxCell id="111" value="return Txn Id" style="html=1;verticalAlign=bottom;endArrow=block;" parent="1" edge="1">
                    <mxGeometry x="0.827" relative="1" as="geometry">
                        <mxPoint x="-370" y="1909" as="sourcePoint"/>
                        <mxPoint x="-760" y="1909" as="targetPoint"/>
                        <Array as="points">
                            <mxPoint x="-210" y="1909"/>
                        </Array>
                        <mxPoint as="offset"/>
                    </mxGeometry>
                </mxCell>
                <mxCell id="110" value="" style="html=1;verticalAlign=bottom;endArrow=block;" parent="1" target="86" edge="1" source="120">
                    <mxGeometry x="0.1222" relative="1" as="geometry">
                        <mxPoint x="-190" y="1849" as="sourcePoint"/>
                        <mxPoint x="89.5" y="1849" as="targetPoint"/>
                        <Array as="points">
                            <mxPoint x="-119.93" y="1849"/>
                        </Array>
                        <mxPoint as="offset"/>
                    </mxGeometry>
                </mxCell>
                <mxCell id="125" value="&lt;p&gt;&lt;strong&gt;Step 1: Clarify the Requirements and Understand the Flow&lt;/strong&gt;&lt;/p&gt;&lt;h3&gt;Functionalities from the App:&lt;/h3&gt;&lt;ol&gt;&lt;li&gt;&lt;p&gt;&lt;strong&gt;User Management&lt;/strong&gt;:&lt;/p&gt;&lt;ul&gt;&lt;li&gt;Add, update, or delete users.&lt;/li&gt;&lt;/ul&gt;&lt;/li&gt;&lt;li&gt;&lt;p&gt;&lt;strong&gt;Instrument Management&lt;/strong&gt;:&lt;/p&gt;&lt;ul&gt;&lt;li&gt;Add, update, or delete funding instruments, such as:&lt;br&gt;a. Bank accounts&lt;br&gt;b. Cards&lt;/li&gt;&lt;/ul&gt;&lt;/li&gt;&lt;li&gt;&lt;p&gt;&lt;strong&gt;Payment Processing&lt;/strong&gt;:&lt;/p&gt;&lt;ul&gt;&lt;li&gt;Facilitate payments from User1 to User2.(i.e U1 send 10/- to U2)&lt;br&gt;a. Search and select the user (recipient) to whom the amount needs to be transferred.&lt;br&gt;b. Enter the transfer amount and select a funding instrument.&lt;br&gt;c. Pass the necessary information to the payment process.&lt;/li&gt;&lt;/ul&gt;&lt;/li&gt;&lt;li&gt;&lt;p&gt;&lt;strong&gt;Notifications&lt;/strong&gt;:&lt;/p&gt;&lt;ul&gt;&lt;li&gt;Generate notifications for operations like:&lt;ul&gt;&lt;li&gt;Adding or removing a user&lt;/li&gt;&lt;li&gt;Debit or credit payments&lt;/li&gt;&lt;/ul&gt;&lt;/li&gt;&lt;/ul&gt;&lt;/li&gt;&lt;li&gt;&lt;p&gt;&lt;strong&gt;Transaction History&lt;/strong&gt;:&lt;/p&gt;&lt;ul&gt;&lt;li&gt;Allow users to view their transaction history.&lt;/li&gt;&lt;/ul&gt;&lt;/li&gt;&lt;/ol&gt;" style="rounded=0;whiteSpace=wrap;html=1;align=left;" vertex="1" parent="1">
                    <mxGeometry x="290" y="1180" width="610" height="510" as="geometry"/>
                </mxCell>
                <mxCell id="126" value="Step2: Identify the Entites Involved&lt;br&gt;&lt;br&gt;1. User&amp;nbsp;&lt;br&gt;2. Instrument like Bank, Card, etc(for send - receive payment)&lt;br&gt;3. Transaction&lt;br&gt;4. Transaction History&lt;br&gt;5. Notification&amp;nbsp;&lt;br&gt;6.Processor&lt;br&gt;7. Payment Gateway : its an mediator , its pass the financial Institutions through Processor , Processor futher interact with card network/Bank Institutions" style="rounded=0;whiteSpace=wrap;html=1;align=left;" vertex="1" parent="1">
                    <mxGeometry x="950" y="1189" width="430" height="160" as="geometry"/>
                </mxCell>
                <mxCell id="127" value="Step 3: Squence diagram to undestand the relation between the entities." style="rounded=0;whiteSpace=wrap;html=1;align=left;" vertex="1" parent="1">
                    <mxGeometry x="-790" y="1230" width="990" height="60" as="geometry"/>
                </mxCell>
                <mxCell id="128" value="&lt;li&gt;&lt;p&gt;&lt;strong&gt;Step 5: Follow Up Questions Like&lt;/strong&gt;&lt;/p&gt;&lt;/li&gt;&lt;li&gt;&lt;p&gt;&lt;strong&gt;Payment Processing Time&lt;/strong&gt;:&lt;/p&gt;&lt;ul&gt;&lt;li&gt;Payments can take 3-5 days to process.&lt;/li&gt;&lt;/ul&gt;&lt;/li&gt;&lt;li&gt;&lt;p&gt;&lt;strong&gt;Using Asynchronous (ASYNC) Operations&lt;/strong&gt;:&lt;/p&gt;&lt;ul&gt;&lt;li&gt;&lt;strong&gt;Validation Step (Processor validate in realtime , if validated mark Transction as PENDING)&lt;/strong&gt;:&lt;ol&gt;&lt;li&gt;Validate if User1 (U1) has sufficient funds to process the transaction.&lt;/li&gt;&lt;li&gt;Validate if User2's (U2) funding instrument is valid.&lt;/li&gt;&lt;/ol&gt;&lt;/li&gt;&lt;li&gt;&lt;strong&gt;Transaction Handling(After Some Time Prcessor Come Again to make PENDIG Transaction SUCESS or Failure)&lt;/strong&gt;:&lt;ol&gt;&lt;li&gt;Save the transaction in a &quot;PENDING&quot; state.&lt;/li&gt;&lt;li&gt;Invoke the process asynchronously and complete the transaction in the &quot;PENDING&quot; state.&lt;/li&gt;&lt;li&gt;Once the process invokes the transaction (TXN) service, update the transaction status to either &quot;SUCCESS&quot; or &quot;FAILURE&lt;/li&gt;&lt;/ol&gt;&lt;/li&gt;&lt;/ul&gt;&lt;/li&gt;" style="whiteSpace=wrap;html=1;aspect=fixed;align=left;" vertex="1" parent="1">
                    <mxGeometry x="1030" y="1710" width="680" height="680" as="geometry"/>
                </mxCell>
            </root>
        </mxGraphModel>
    </diagram>
</mxfile>